<svg width="215" height="50" viewBox="0 0 215 50" fill="none" xmlns="http://www.w3.org/2000/svg">
<path d="M15.8259 0.884154C17.0048 -0.294718 18.9161 -0.294718 20.095 0.884155L35.0368 15.8259C36.2156 17.0048 36.2156 18.9161 35.0368 20.095L20.095 35.0368C18.9161 36.2156 17.0048 36.2156 15.8259 35.0368L0.884154 20.095C-0.294718 18.9161 -0.294718 17.0048 0.884155 15.8259L15.8259 0.884154Z" fill="url(#paint0_linear_83_306)"/>
<path d="M15.8259 14.9633C17.0048 13.7844 18.9161 13.7844 20.095 14.9633L35.0368 29.905C36.2156 31.0839 36.2156 32.9952 35.0368 34.1741L20.095 49.1159C18.9161 50.2947 17.0048 50.2947 15.8259 49.1159L0.884154 34.1741C-0.294718 32.9952 -0.294718 31.0839 0.884155 29.905L15.8259 14.9633Z" fill="url(#paint1_linear_83_306)"/>
<path d="M54.1468 34.3107C52.5728 34.3107 51.1334 34.0414 49.8286 33.5029C48.5239 32.9645 47.3951 32.1982 46.4424 31.2041C45.4897 30.1892 44.7442 28.9984 44.2057 27.6315C43.6879 26.2439 43.429 24.732 43.429 23.0958C43.429 21.5218 43.7086 20.0617 44.2678 18.7155C44.827 17.3693 45.6037 16.1888 46.5978 15.174C47.5919 14.1592 48.7517 13.3722 50.0772 12.813C51.4026 12.2538 52.842 11.9742 54.3953 11.9742C55.4516 11.9742 56.4768 12.1295 57.4709 12.4402C58.465 12.7509 59.3762 13.1858 60.2047 13.745C61.0331 14.2835 61.7269 14.9151 62.2861 15.64L59.7076 18.467C59.1691 17.9078 58.61 17.4418 58.0301 17.069C57.4709 16.6755 56.8806 16.3856 56.2593 16.1992C55.6587 15.9921 55.0374 15.8885 54.3953 15.8885C53.4426 15.8885 52.5417 16.0646 51.6926 16.4166C50.8642 16.7687 50.1393 17.2658 49.518 17.9078C48.9174 18.5498 48.441 19.3161 48.0889 20.2067C47.7369 21.0765 47.5608 22.0499 47.5608 23.1269C47.5608 24.2246 47.7265 25.2187 48.0579 26.1092C48.4099 26.9998 48.8967 27.7661 49.518 28.4081C50.16 29.0502 50.9159 29.5472 51.7858 29.8993C52.6763 30.2307 53.6497 30.3963 54.706 30.3963C55.3894 30.3963 56.0522 30.3031 56.6942 30.1168C57.3362 29.9304 57.9265 29.6715 58.465 29.3401C59.0242 28.988 59.5316 28.5842 59.9872 28.1285L61.9754 31.3283C61.4784 31.8875 60.8156 32.3949 59.9872 32.8506C59.1588 33.3062 58.2268 33.6686 57.1913 33.9379C56.1764 34.1864 55.1616 34.3107 54.1468 34.3107ZM72.9602 34.3107C71.324 34.3107 69.8639 33.9482 68.5799 33.2234C67.2958 32.4778 66.281 31.4629 65.5354 30.1789C64.7898 28.8948 64.417 27.4347 64.417 25.7986C64.417 24.1624 64.7898 22.7023 65.5354 21.4183C66.281 20.1342 67.2958 19.1297 68.5799 18.4049C69.8639 17.6593 71.324 17.2865 72.9602 17.2865C74.5756 17.2865 76.0254 17.6593 77.3094 18.4049C78.5935 19.1297 79.5979 20.1342 80.3228 21.4183C81.0684 22.7023 81.4412 24.1624 81.4412 25.7986C81.4412 27.4347 81.0684 28.8948 80.3228 30.1789C79.5979 31.4629 78.5935 32.4778 77.3094 33.2234C76.0254 33.9482 74.5756 34.3107 72.9602 34.3107ZM72.9602 30.9245C73.8507 30.9245 74.6377 30.6966 75.3212 30.241C76.0254 29.7854 76.5742 29.1744 76.9677 28.4081C77.3819 27.6418 77.5786 26.772 77.5579 25.7986C77.5786 24.8045 77.3819 23.9243 76.9677 23.158C76.5742 22.3917 76.0254 21.7911 75.3212 21.3561C74.6377 20.9005 73.8507 20.6727 72.9602 20.6727C72.0696 20.6727 71.2619 20.9005 70.537 21.3561C69.8329 21.7911 69.284 22.402 68.8905 23.189C68.497 23.9553 68.3003 24.8252 68.3003 25.7986C68.3003 26.772 68.497 27.6418 68.8905 28.4081C69.284 29.1744 69.8329 29.7854 70.537 30.241C71.2619 30.6966 72.0696 30.9245 72.9602 30.9245ZM84.8592 34V17.6282H88.5871L88.6492 20.9833L87.9347 21.3561C88.1418 20.6106 88.5457 19.9375 89.1463 19.3369C89.7469 18.7155 90.4614 18.2185 91.2898 17.8457C92.1183 17.4729 92.9674 17.2865 93.8372 17.2865C95.0799 17.2865 96.1154 17.535 96.9438 18.0321C97.793 18.5291 98.4247 19.2747 98.8389 20.2688C99.2738 21.2629 99.4913 22.5056 99.4913 23.9968V34H95.6701V24.2763C95.6701 23.4479 95.5562 22.7645 95.3284 22.226C95.1006 21.6668 94.7485 21.2629 94.2722 21.0144C93.7958 20.7452 93.2159 20.6209 92.5325 20.6416C91.9733 20.6416 91.4555 20.7348 90.9792 20.9212C90.5235 21.0869 90.1197 21.3354 89.7676 21.6668C89.4362 21.9775 89.167 22.3399 88.9599 22.7541C88.7735 23.1683 88.6803 23.624 88.6803 24.121V34H86.7853C86.4125 34 86.0604 34 85.729 34C85.4184 34 85.1284 34 84.8592 34ZM109.04 34L102.144 17.6282H106.306L110.966 29.8682L110.159 30.0857L115.067 17.6282H119.137L111.898 34H109.04ZM128.964 34.3107C127.328 34.3107 125.868 33.9482 124.584 33.2234C123.3 32.4778 122.285 31.4629 121.539 30.1789C120.794 28.8948 120.421 27.4347 120.421 25.7986C120.421 24.1624 120.794 22.7023 121.539 21.4183C122.285 20.1342 123.3 19.1297 124.584 18.4049C125.868 17.6593 127.328 17.2865 128.964 17.2865C130.579 17.2865 132.029 17.6593 133.313 18.4049C134.597 19.1297 135.602 20.1342 136.327 21.4183C137.072 22.7023 137.445 24.1624 137.445 25.7986C137.445 27.4347 137.072 28.8948 136.327 30.1789C135.602 31.4629 134.597 32.4778 133.313 33.2234C132.029 33.9482 130.579 34.3107 128.964 34.3107ZM128.964 30.9245C129.854 30.9245 130.641 30.6966 131.325 30.241C132.029 29.7854 132.578 29.1744 132.971 28.4081C133.386 27.6418 133.582 26.772 133.562 25.7986C133.582 24.8045 133.386 23.9243 132.971 23.158C132.578 22.3917 132.029 21.7911 131.325 21.3561C130.641 20.9005 129.854 20.6727 128.964 20.6727C128.073 20.6727 127.266 20.9005 126.541 21.3561C125.837 21.7911 125.288 22.402 124.894 23.189C124.501 23.9553 124.304 24.8252 124.304 25.7986C124.304 26.772 124.501 27.6418 124.894 28.4081C125.288 29.1744 125.837 29.7854 126.541 30.241C127.266 30.6966 128.073 30.9245 128.964 30.9245ZM150.773 34.3107C149.199 34.3107 147.76 34.0414 146.455 33.5029C145.15 32.9645 144.021 32.1982 143.069 31.2041C142.116 30.1892 141.37 28.9984 140.832 27.6315C140.314 26.2439 140.055 24.732 140.055 23.0958C140.055 21.5218 140.335 20.0617 140.894 18.7155C141.453 17.3693 142.23 16.1888 143.224 15.174C144.218 14.1592 145.378 13.3722 146.703 12.813C148.029 12.2538 149.468 11.9742 151.021 11.9742C152.078 11.9742 153.103 12.1295 154.097 12.4402C155.091 12.7509 156.002 13.1858 156.831 13.745C157.659 14.2835 158.353 14.9151 158.912 15.64L156.334 18.467C155.795 17.9078 155.236 17.4418 154.656 17.069C154.097 16.6755 153.507 16.3856 152.885 16.1992C152.285 15.9921 151.664 15.8885 151.021 15.8885C150.069 15.8885 149.168 16.0646 148.319 16.4166C147.49 16.7687 146.765 17.2658 146.144 17.9078C145.544 18.5498 145.067 19.3161 144.715 20.2067C144.363 21.0765 144.187 22.0499 144.187 23.1269C144.187 24.2246 144.353 25.2187 144.684 26.1092C145.036 26.9998 145.523 27.7661 146.144 28.4081C146.786 29.0502 147.542 29.5472 148.412 29.8993C149.302 30.2307 150.276 30.3963 151.332 30.3963C152.016 30.3963 152.678 30.3031 153.32 30.1168C153.962 29.9304 154.553 29.6715 155.091 29.3401C155.65 28.988 156.158 28.5842 156.613 28.1285L158.602 31.3283C158.105 31.8875 157.442 32.3949 156.613 32.8506C155.785 33.3062 154.853 33.6686 153.817 33.9379C152.803 34.1864 151.788 34.3107 150.773 34.3107ZM162.099 34V11.0112H165.889V20.9833L165.175 21.3561C165.382 20.6106 165.786 19.9375 166.387 19.3369C166.987 18.7155 167.702 18.2185 168.53 17.8457C169.359 17.4729 170.208 17.2865 171.077 17.2865C172.32 17.2865 173.356 17.535 174.184 18.0321C175.033 18.5291 175.665 19.2747 176.079 20.2688C176.514 21.2629 176.732 22.5056 176.732 23.9968V34H172.91V24.2763C172.91 23.4479 172.796 22.7645 172.569 22.226C172.341 21.6668 171.989 21.2629 171.512 21.0144C171.036 20.7452 170.456 20.6209 169.773 20.6416C169.214 20.6416 168.696 20.7348 168.219 20.9212C167.764 21.0869 167.36 21.3354 167.008 21.6668C166.676 21.9775 166.407 22.3399 166.2 22.7541C166.014 23.1683 165.921 23.624 165.921 24.121V34H164.026C163.653 34 163.301 34 162.969 34C162.659 34 162.369 34 162.099 34ZM181.465 34V17.6282H185.286V34H181.465ZM183.329 14.1488C182.563 14.1488 181.962 13.9624 181.527 13.5896C181.113 13.1961 180.906 12.6473 180.906 11.9431C180.906 11.2804 181.123 10.7419 181.558 10.3277C181.993 9.9135 182.584 9.70639 183.329 9.70639C184.116 9.70639 184.717 9.90315 185.131 10.2966C185.566 10.6694 185.783 11.2183 185.783 11.9431C185.783 12.5852 185.566 13.1133 185.131 13.5275C184.696 13.9417 184.095 14.1488 183.329 14.1488ZM191.902 34V13.4654H195.723V34H191.902ZM188.672 21.1697V17.6282H199.296V21.1697H188.672Z" fill="white"/>
<defs>
<linearGradient id="paint0_linear_83_306" x1="7.99876" y1="7.84785" x2="27.6203" y2="27.4693" gradientUnits="userSpaceOnUse">
<stop stop-color="#4A6CF7"/>
<stop offset="1" stop-color="#4A6CF7" stop-opacity="0"/>
</linearGradient>
<linearGradient id="paint1_linear_83_306" x1="7.99878" y1="21.9269" x2="27.6203" y2="41.5484" gradientUnits="userSpaceOnUse">
<stop stop-color="#4A6CF7" stop-opacity="0"/>
<stop offset="1" stop-color="#4A6CF7"/>
</linearGradient>
</defs>
</svg>
